<?xml version="1.0" encoding="UTF-8" standalone="no"?>
<!-- Created with Inkscape (http://www.inkscape.org/) -->

<svg
   xmlns:dc="http://purl.org/dc/elements/1.1/"
   xmlns:cc="http://creativecommons.org/ns#"
   xmlns:rdf="http://www.w3.org/1999/02/22-rdf-syntax-ns#"
   xmlns:svg="http://www.w3.org/2000/svg"
   xmlns="http://www.w3.org/2000/svg"
   xmlns:sodipodi="http://sodipodi.sourceforge.net/DTD/sodipodi-0.dtd"
   xmlns:inkscape="http://www.inkscape.org/namespaces/inkscape"
   width="210mm"
   height="297mm"
   viewBox="0 0 210 297"
   version="1.1"
   id="svg8"
   inkscape:version="0.92.3 (2405546, 2018-03-11)"
   sodipodi:docname="Nowaczek_logo.svg">
  <defs
     id="defs2" />
  <sodipodi:namedview
     id="base"
     pagecolor="#ffffff"
     bordercolor="#666666"
     borderopacity="1.0"
     inkscape:pageopacity="0.0"
     inkscape:pageshadow="2"
     inkscape:zoom="0.49497475"
     inkscape:cx="95.876692"
     inkscape:cy="355.94039"
     inkscape:document-units="mm"
     inkscape:current-layer="layer1"
     showgrid="false"
     showguides="true"
     inkscape:guide-bbox="true"
     inkscape:window-width="1681"
     inkscape:window-height="587"
     inkscape:window-x="67"
     inkscape:window-y="27"
     inkscape:window-maximized="0">
    <sodipodi:guide
       position="104.32143,148.92262"
       orientation="0,1"
       id="guide827"
       inkscape:locked="false" />
    <sodipodi:guide
       position="104.32143,235.85715"
       orientation="1,0"
       id="guide829"
       inkscape:locked="false" />
  </sodipodi:namedview>
  <metadata
     id="metadata5">
    <rdf:RDF>
      <cc:Work
         rdf:about="">
        <dc:format>image/svg+xml</dc:format>
        <dc:type
           rdf:resource="http://purl.org/dc/dcmitype/StillImage" />
        <dc:title></dc:title>
      </cc:Work>
    </rdf:RDF>
  </metadata>
  <g
     inkscape:label="Layer 1"
     inkscape:groupmode="layer"
     id="layer1">
    <path
       style="fill:#ff0000;fill-opacity:1;stroke-width:5.00000525;stroke-miterlimit:4;stroke-dasharray:none"
       d="m 104.32143,81.553679 a 69.547772,66.901787 0 0 0 -69.547844,66.901861 69.547772,66.901787 0 0 0 0.847497,10.0645 v -8.08323 c 7.515074,-3.58144 14.457277,-6.14291 20.827198,-7.68428 6.441491,-1.58672 13.133839,-2.38022 20.076335,-2.38022 7.872937,0 17.070035,1.36029 27.591144,4.08037 l 1.61024,0.40773 c 0.57258,0.136 1.35961,0.31748 2.36161,0.54415 11.09369,2.81075 20.0045,4.21628 26.73228,4.21628 6.1552,0 12.23906,-0.86162 18.25112,-2.58434 6.03478,-1.70888 12.7041,-4.4453 20.00658,-8.20622 A 69.547772,66.901787 0 0 0 104.32143,81.553679 Z"
       id="path852"
       inkscape:connector-curvature="0" />
    <path
       style="fill:#000080;fill-opacity:1;stroke-width:5.00000525;stroke-miterlimit:4;stroke-dasharray:none"
       d="m 173.25432,140.22968 v 10.61486 c -7.51508,3.58143 -14.49319,6.1429 -20.93469,7.68428 -6.36992,1.54138 -13.02635,2.31201 -19.96884,2.31201 -7.87294,0 -17.03412,-1.33742 -27.48366,-4.01216 -0.78729,-0.18134 -1.35986,-0.31706 -1.71772,-0.40773 -0.50101,-0.136 -1.28856,-0.31748 -2.36214,-0.54415 -11.093681,-2.81075 -20.004494,-4.21628 -26.732275,-4.21628 -6.298348,0 -12.524833,0.88398 -18.680036,2.65203 -5.946536,1.66432 -12.295169,4.28384 -19.043323,7.85224 a 69.547772,66.901787 0 0 0 67.989794,53.19262 69.547772,66.901787 0 0 0 69.54784,-66.90186 69.547772,66.901787 0 0 0 -0.61495,-8.22586 z"
       id="path831"
       inkscape:connector-curvature="0" />
    <g
       aria-label="~"
       transform="matrix(1.0900265,0.18475102,-0.42502594,1.2571182,1093.0962,-160.39897)"
       style="font-style:normal;font-weight:normal;font-size:192px;line-height:1.25;font-family:sans-serif;letter-spacing:0px;word-spacing:0px;fill:none;fill-opacity:1;stroke:none;stroke-opacity:1"
       id="flowRoot847">
      <path
         d="m -770.61523,409.31055 c -0.6875,-0.25 -1.1875,-0.4375 -1.5,-0.5625 m -58.96875,-8.25 c 11.72061,-8.85537 23.76298,-13.79256 35.71875,-13.875 29.25008,5.124 60.13384,16.96307 84.46875,-2.25"
         style="stroke:none;stroke-opacity:1"
         id="path854"
         inkscape:connector-curvature="0"
         sodipodi:nodetypes="ccccc" />
    </g>
    <flowRoot
       xml:space="preserve"
       id="flowRoot889"
       style="fill:black;fill-opacity:1;stroke:none;font-family:sans-serif;font-style:normal;font-weight:normal;font-size:40px;line-height:1.25;letter-spacing:0px;word-spacing:0px"><flowRegion
         id="flowRegion891"><rect
           id="rect893"
           width="432.85715"
           height="67.14286"
           x="171.42857"
           y="841.09113" /></flowRegion><flowPara
         id="flowPara895"></flowPara></flowRoot>    <flowRoot
       xml:space="preserve"
       id="flowRoot912"
       style="font-style:normal;font-weight:normal;font-size:40px;line-height:1.25;font-family:sans-serif;letter-spacing:0px;word-spacing:0px;fill:#000000;fill-opacity:1;stroke:#000000;stroke-width:0.23866349;stroke-miterlimit:4;stroke-dasharray:none;stroke-opacity:1"
       transform="matrix(0.34577262,0.04381326,-0.21285402,0.47066047,158.81006,-273.35471)"><flowRegion
         id="flowRegion914"
         style="stroke:#000000;stroke-width:0.23866349;stroke-miterlimit:4;stroke-dasharray:none;stroke-opacity:1;fill:#000000;fill-opacity:1"><rect
           id="rect916"
           width="438.40622"
           height="62.629459"
           x="157.5838"
           y="843.71759"
           style="stroke:#000000;stroke-width:0.23866349;stroke-miterlimit:4;stroke-dasharray:none;stroke-opacity:1;fill:#000000;fill-opacity:1" /></flowRegion><flowPara
         id="flowPara918"
         style="text-align:center;text-anchor:middle;stroke:#000000;stroke-width:0.23866349;stroke-miterlimit:4;stroke-dasharray:none;stroke-opacity:1;fill:#000000;fill-opacity:1">Mateusz</flowPara></flowRoot>  </g>
</svg>
